<svg width="27" height="29" viewBox="0 0 27 29" fill="none" xmlns="http://www.w3.org/2000/svg">
<path d="M25.3236 6.72234C25.3626 6.69963 25.3948 6.66712 25.4173 6.62805C25.4397 6.58898 25.4515 6.54471 25.4515 6.49965C25.4515 6.45459 25.4397 6.41032 25.4173 6.37125C25.3948 6.33218 25.3626 6.29967 25.3236 6.27697L15.4791 0.557396C14.8492 0.192282 14.134 0 13.4059 0C12.6779 0 11.9627 0.192282 11.3328 0.557396L1.49016 6.27697C1.45124 6.29967 1.41895 6.33218 1.39651 6.37125C1.37407 6.41032 1.36227 6.45459 1.36227 6.49965C1.36227 6.54471 1.37407 6.58898 1.39651 6.62805C1.41895 6.66712 1.45124 6.69963 1.49016 6.72234L13.2773 13.6562C13.317 13.6796 13.3622 13.6919 13.4082 13.6919C13.4542 13.6919 13.4994 13.6796 13.539 13.6562L25.3236 6.72234ZM0.386724 8.47611C0.347409 8.45341 0.302797 8.44149 0.257399 8.44156C0.212001 8.44164 0.167428 8.4537 0.128185 8.47652C0.0889432 8.49935 0.0564243 8.53213 0.0339167 8.57156C0.0114091 8.61098 -0.000289059 8.65565 5.4256e-06 8.70105V19.9088C0.000978477 20.4489 0.143329 20.9793 0.4129 21.4474C0.682472 21.9154 1.06987 22.3047 1.53657 22.5765L11.9883 28.8433C12.0275 28.8659 12.0719 28.8778 12.1171 28.8778C12.1624 28.8778 12.2068 28.866 12.246 28.8434C12.2852 28.8208 12.3177 28.7883 12.3404 28.7491C12.363 28.7099 12.375 28.6655 12.375 28.6203V15.6169C12.375 15.5717 12.363 15.5273 12.3404 15.4881C12.3178 15.449 12.2853 15.4165 12.2461 15.3939L0.386724 8.47611ZM14.4375 15.662V28.6171C14.4376 28.6623 14.4495 28.7067 14.4721 28.7459C14.4948 28.785 14.5273 28.8175 14.5665 28.8401C14.6057 28.8627 14.6502 28.8746 14.6954 28.8746C14.7406 28.8746 14.7851 28.8627 14.8242 28.8401L25.2753 22.5733C25.7416 22.3018 26.1289 21.9131 26.3985 21.4456C26.6682 20.9782 26.8109 20.4484 26.8125 19.9088V8.70105C26.8123 8.65587 26.8003 8.61153 26.7776 8.57246C26.7549 8.5334 26.7224 8.50098 26.6832 8.47846C26.644 8.45594 26.5996 8.4441 26.5545 8.44414C26.5093 8.44418 26.4649 8.4561 26.4258 8.47869L14.5664 15.4396C14.5274 15.4622 14.4949 15.4946 14.4723 15.5336C14.4497 15.5726 14.4377 15.6169 14.4375 15.662Z" fill="black"/>
</svg>
