<svg width="31" height="31" viewBox="0 0 31 31" fill="none" xmlns="http://www.w3.org/2000/svg">
<path d="M14.7045 19.7295C16.1396 19.7244 19.277 19.7127 19.2408 17.7171C19.206 15.6763 16.1925 15.799 14.7239 15.8597C14.5586 15.8675 14.4156 15.8722 14.2951 15.8739L14.3622 19.7321C14.4604 19.7295 14.5745 19.7287 14.7045 19.7295ZM14.5521 14.1069C15.7495 14.1056 18.3625 14.103 18.3315 12.2882C18.2979 10.4321 15.7882 10.5419 14.5624 10.5962C14.4246 10.603 14.305 10.6074 14.2033 10.6091L14.2641 14.1082L14.5521 14.1069Z" fill="#D79FD2"/>
<path fill-rule="evenodd" clip-rule="evenodd" d="M11.748 30.5357C20.0534 32.6062 28.4647 27.5519 30.5352 19.2491C32.6058 10.9449 27.5502 2.53361 19.2448 0.464361C10.9445 -1.60747 2.5332 3.44811 0.463952 11.7535C-1.60659 20.0564 3.4477 28.4677 11.7492 30.5369M17.2802 8.55278C19.5457 8.71295 21.3489 9.37686 21.5853 11.4487C21.761 12.9651 21.141 13.8887 20.1347 14.4234C21.8139 14.7954 22.8795 15.7706 22.7116 18.0026C22.5037 20.7732 20.4538 21.5521 17.5114 21.773L17.5605 24.6792L15.809 24.7102L15.7586 21.8427C15.3056 21.8513 14.8389 21.8548 14.3584 21.8531L14.4101 24.7335L12.6586 24.7645L12.6069 21.8531L12.1122 21.8569C11.8608 21.8569 11.6085 21.8595 11.3553 21.8647L9.0742 21.9034L9.38549 19.8058C9.38549 19.8058 10.6823 19.8032 10.6591 19.7838C11.1551 19.7735 11.2804 19.4157 11.3075 19.1909L11.2274 14.5952L11.3527 14.5926H11.4121C11.3504 14.5851 11.2883 14.5821 11.2261 14.5836L11.1693 11.3027C11.0957 10.9488 10.858 10.5407 10.1489 10.5536C10.1682 10.5277 8.87529 10.5755 8.87529 10.5755L8.8417 8.70519L11.2597 8.66386V8.6729C11.624 8.66601 11.9955 8.65482 12.3744 8.63932L12.3253 5.7602L14.0768 5.73049L14.1259 8.55149C14.5935 8.53469 15.0637 8.51661 15.5248 8.50886L15.4757 5.70595L17.2285 5.67495L17.2802 8.55278Z" fill="#D79FD2"/>
</svg>
